<?xml version="1.0" encoding="UTF-8" standalone="no"?>
<!DOCTYPE svg PUBLIC "-//W3C//DTD SVG 1.1//EN" "http://www.w3.org/Graphics/SVG/1.1/DTD/svg11.dtd">
<svg width="100%" height="100%" viewBox="0 0 256 256" version="1.1" xmlns="http://www.w3.org/2000/svg" xmlns:xlink="http://www.w3.org/1999/xlink" xml:space="preserve" xmlns:serif="http://www.serif.com/" style="fill-rule:evenodd;clip-rule:evenodd;stroke-linejoin:round;stroke-miterlimit:2;">
    <g transform="matrix(0.863725,0,0,0.863725,28.655,17.4432)">
        <g>
            <g transform="matrix(5.21663e-17,0.85194,-1.10253,6.75104e-17,282.403,-46.884)">
                <path d="M177.68,124.72C173.928,124.72 170.885,127.071 170.885,129.971C170.885,135.897 170.885,145.681 170.885,153.125C170.885,155.091 169.463,156.893 167.2,157.793C164.937,158.693 162.212,158.54 160.141,157.397C138.75,145.591 91.295,119.398 72.645,109.104C70.859,108.119 69.799,106.528 69.799,104.832C69.799,103.136 70.859,101.545 72.645,100.559C91.295,90.266 138.75,64.073 160.141,52.267C162.212,51.123 164.937,50.971 167.2,51.871C169.463,52.77 170.885,54.572 170.885,56.539C170.885,63.982 170.885,73.766 170.885,79.693C170.885,82.593 173.928,84.943 177.68,84.943C199.589,84.943 268.211,84.943 290.119,84.943C291.921,84.943 293.65,85.497 294.924,86.481C296.198,87.466 296.914,88.801 296.914,90.194C296.914,97.812 296.914,111.851 296.914,119.47C296.914,120.862 296.198,122.198 294.924,123.182C293.65,124.167 291.921,124.72 290.119,124.72C268.211,124.72 199.589,124.72 177.68,124.72Z" style="fill:url(#_Linear1);"/>
            </g>
            <g transform="matrix(5.21663e-17,-0.85194,1.10253,6.75104e-17,-59.5937,302.884)">
                <path d="M177.68,124.72C173.928,124.72 170.885,127.071 170.885,129.971C170.885,135.897 170.885,145.681 170.885,153.125C170.885,155.091 169.463,156.893 167.2,157.793C164.937,158.693 162.212,158.54 160.141,157.397C138.75,145.591 91.295,119.398 72.645,109.104C70.859,108.119 69.799,106.528 69.799,104.832C69.799,103.136 70.859,101.545 72.645,100.559C91.295,90.266 138.75,64.073 160.141,52.267C162.212,51.123 164.937,50.971 167.2,51.871C169.463,52.77 170.885,54.572 170.885,56.539C170.885,63.982 170.885,73.766 170.885,79.693C170.885,82.593 173.928,84.943 177.68,84.943C199.589,84.943 268.211,84.943 290.119,84.943C291.921,84.943 293.65,85.497 294.924,86.481C296.198,87.466 296.914,88.801 296.914,90.194C296.914,97.812 296.914,111.851 296.914,119.47C296.914,120.862 296.198,122.198 294.924,123.182C293.65,124.167 291.921,124.72 290.119,124.72C268.211,124.72 199.589,124.72 177.68,124.72Z" style="fill:url(#_Linear2);"/>
            </g>
        </g>
    </g>
    <defs>
        <linearGradient id="_Linear1" x1="0" y1="0" x2="1" y2="0" gradientUnits="userSpaceOnUse" gradientTransform="matrix(232.01,-208.715,227.784,151.187,64.9037,259.551)"><stop offset="0" style="stop-color:rgb(250,250,250);stop-opacity:1"/><stop offset="1" style="stop-color:rgb(120,120,120);stop-opacity:1"/></linearGradient>
        <linearGradient id="_Linear2" x1="0" y1="0" x2="1" y2="0" gradientUnits="userSpaceOnUse" gradientTransform="matrix(232.01,-208.715,227.784,151.187,64.9037,259.551)"><stop offset="0" style="stop-color:rgb(250,250,250);stop-opacity:1"/><stop offset="1" style="stop-color:rgb(120,120,120);stop-opacity:1"/></linearGradient>
    </defs>
</svg>
