<?xml version="1.0" encoding="UTF-8" standalone="no"?><!DOCTYPE svg PUBLIC "-//W3C//DTD SVG 1.1//EN" "http://www.w3.org/Graphics/SVG/1.1/DTD/svg11.dtd"><svg width="100%" height="100%" viewBox="0 0 500 500" version="1.1" xmlns="http://www.w3.org/2000/svg" xmlns:xlink="http://www.w3.org/1999/xlink" xml:space="preserve" xmlns:serif="http://www.serif.com/" style="fill-rule:evenodd;clip-rule:evenodd;stroke-linecap:round;stroke-linejoin:round;stroke-miterlimit:1.5;"><circle cx="250" cy="250" r="231.349" style="fill:#a7c7db;"/><g><path d="M279.753,100.422l38.874,-16.102l16.102,38.874l42.077,0l0,42.077l38.874,16.102l-16.102,38.874l29.753,29.753l-29.753,29.753l16.102,38.874l-38.874,16.102l0,42.077l-42.077,0l-16.102,38.874l-38.874,-16.102l-29.753,29.753l-29.753,-29.753l-38.874,16.102l-16.102,-38.874l-42.077,0l0,-42.077l-38.874,-16.102l16.102,-38.874l-29.753,-29.753l29.753,-29.753l-16.102,-38.874l38.874,-16.102l0,-42.077l42.077,0l16.102,-38.874l38.874,16.102l29.753,-29.753l29.753,29.753Z" style="fill:#ff9400;stroke:#ff7000;stroke-width:1.6px;"/><ellipse cx="250" cy="250" rx="155.613" ry="153.954" style="fill:#ffc200;stroke:#fb8505;stroke-width:1.6px;"/></g><path d="M158.295,136.94c25.041,-20.343 56.96,-32.539 91.705,-32.539c80.358,0 145.599,65.241 145.599,145.599c0,48.779 -24.04,91.988 -60.908,118.415c32.874,-26.704 53.894,-67.447 53.894,-113.06c0,-80.358 -65.241,-145.599 -145.599,-145.599c-31.579,0 -60.823,10.075 -84.691,27.184Z" style="fill:#fff;fill-opacity:0.25;"/></svg>